<?xml version="1.0" standalone="no"?>
<!DOCTYPE svg PUBLIC "-//W3C//DTD SVG 20010904//EN"
 "http://www.w3.org/TR/2001/REC-SVG-20010904/DTD/svg10.dtd">
<svg version="1.0" xmlns="http://www.w3.org/2000/svg"
 width="1342.000000pt" height="227.000000pt" viewBox="0 0 1342.000000 227.000000"
 preserveAspectRatio="xMidYMid meet">

<g transform="translate(0.000000,227.000000) scale(0.100000,-0.100000)"
fill="#000000" stroke="none">
<path d="M7706 2235 c-72 -20 -164 -69 -218 -115 -60 -52 -130 -157 -160 -240
l-23 -65 0 -880 0 -880 282 -3 283 -2 2 765 3 765 595 -610 c694 -713 819
-827 980 -904 61 -29 72 -31 180 -31 115 0 115 0 204 43 153 73 261 210 306
388 19 74 20 112 20 916 l0 838 -282 -2 -283 -3 0 -748 c0 -411 -2 -747 -5
-747 -2 0 -326 323 -720 718 -654 658 -721 722 -781 751 -36 18 -90 38 -120
46 -66 18 -197 18 -263 0z"/>
<path d="M30 1135 l0 -1085 308 2 307 3 2 375 c2 206 3 383 3 394 0 13 12 4
41 -32 62 -79 135 -128 664 -446 l493 -296 582 2 581 3 -53 31 c-29 17 -150
89 -268 161 -311 188 -1110 670 -1285 775 -82 50 -155 96 -162 102 -12 11 27
36 1127 711 506 311 614 377 619 381 2 2 -254 4 -571 4 l-575 0 -474 -296
c-520 -325 -578 -364 -662 -453 l-57 -60 0 32 c0 18 -1 199 -3 402 l-2 370
-307 3 -308 2 0 -1085z"/>
<path d="M3200 1135 l0 -1085 293 2 292 3 2 395 2 395 841 3 840 2 0 -400 0
-400 295 0 295 0 0 1085 0 1085 -290 0 -290 0 -2 -387 c-3 -362 -4 -388 -20
-387 -10 1 -391 2 -848 3 l-830 1 0 385 0 385 -290 0 -290 0 0 -1085z"/>
<path d="M6390 1135 l0 -1085 295 0 295 0 0 1085 0 1085 -295 0 -295 0 0
-1085z"/>
<path d="M10490 1915 l0 -305 1131 0 c718 0 1137 -4 1149 -10 37 -20 40 -60
40 -487 l0 -414 -25 -25 -24 -24 -848 2 -848 3 -3 313 -2 312 -285 0 -285 0 0
-615 0 -615 1145 0 c1284 0 1231 -3 1385 72 68 33 101 58 165 122 92 92 140
175 177 301 23 79 23 87 23 600 0 460 -2 528 -17 587 -64 249 -221 406 -467
469 -71 18 -128 19 -1243 19 l-1168 0 0 -305z"/>
</g>
</svg>
